<svg id="Layer_1" data-name="Layer 1" xmlns="http://www.w3.org/2000/svg" viewBox="0 0 285.45 285.45"><defs><style>.cls-1{fill:#fff;}.cls-2{fill:#f4cfc7;}.cls-3{fill:#e58675;}</style></defs><title>BentoBox-Symbol-2018-wht-tomato</title><g id="Symbol"><path class="cls-1" d="M88.08,45.45,120.47,13a44.5,44.5,0,0,1,62.92,0h0l.93.93a44.49,44.49,0,0,1,0,62.92h0l-32.39,32.39h0Z"/><path class="cls-2" d="M176.18,133.54l32.39-32.39a44.5,44.5,0,0,1,62.92,0h0l.93.93a44.49,44.49,0,0,1,0,62.92h0L240,197.39h0l-63.85-63.85Z"/><path class="cls-2" d="M0,133.54l32.39-32.39a44.5,44.5,0,0,1,62.92,0h0l.93.93a44.49,44.49,0,0,1,0,62.92h0L63.85,197.39h0Z"/><path class="cls-3" d="M88.08,221.63l32.39-32.39a44.5,44.5,0,0,1,62.92,0h0l.93.93a44.49,44.49,0,0,1,0,62.92h0l-32.39,32.36h0Z"/></g></svg>