<svg width="36" height="36" viewBox="0 0 36 36" fill="none" xmlns="http://www.w3.org/2000/svg">
<g clip-path="url(#clip0)">
<rect width="36" height="36" fill="white"/>
<path fill-rule="evenodd" clip-rule="evenodd" d="M12.4802 36.0001C13.3539 36.0001 14.5408 35.9136 15.8927 35.663C25.9527 34.3681 33.2636 26.8127 33.2636 17.3396C33.2636 9.42261 27.4533 3.04211 20.0514 0.367754L20.029 0.359667L20.0065 0.351924C16.9111 -0.712989 13.4166 0.703038 12.0543 3.73246C11.1522 3.76013 9.00221 3.88089 7.42105 4.40805C3.92067 5.57509 3 8.73886 3 10.4712V29.2532C3 30.9855 3.92067 34.1492 7.42105 35.3163C9.47205 36.0001 12.4802 36.0001 12.4802 36.0001ZM27.1563 19.771C27.1563 26.9213 20.5927 32.7178 12.496 32.7178C10.4783 32.7178 8.91849 32.3748 8.39083 32.2033C7.11514 31.7888 6.19051 30.5637 6.19051 29.117V10.425C6.19051 8.97822 7.11514 7.75315 8.39083 7.33862C8.91849 7.16714 10.4783 6.82417 12.496 6.82417C20.5927 6.82417 27.1563 12.6207 27.1563 19.771Z" fill="#161618"/>
</g>
<defs>
<clipPath id="clip0">
<rect width="36" height="36" fill="white"/>
</clipPath>
</defs>
</svg>
